<svg width="23" height="23" viewBox="0 0 23 23" fill="none" xmlns="http://www.w3.org/2000/svg">
<path fill-rule="evenodd" clip-rule="evenodd" d="M0.87868 3.37868C1.44129 2.81607 2.20435 2.5 3 2.5H10C10.5523 2.5 11 2.94772 11 3.5C11 4.05228 10.5523 4.5 10 4.5H3C2.73478 4.5 2.48043 4.60536 2.29289 4.79289C2.10536 4.98043 2 5.23478 2 5.5V19.5C2 19.7652 2.10536 20.0196 2.29289 20.2071C2.48043 20.3946 2.73478 20.5 3 20.5H17C17.2652 20.5 17.5196 20.3946 17.7071 20.2071C17.8946 20.0196 18 19.7652 18 19.5V12.5C18 11.9477 18.4477 11.5 19 11.5C19.5523 11.5 20 11.9477 20 12.5V19.5C20 20.2957 19.6839 21.0587 19.1213 21.6213C18.5587 22.1839 17.7957 22.5 17 22.5H3C2.20435 22.5 1.44129 22.1839 0.87868 21.6213C0.31607 21.0587 0 20.2957 0 19.5V5.5C0 4.70435 0.31607 3.94129 0.87868 3.37868Z" fill="#A49FC2"/>
<path fill-rule="evenodd" clip-rule="evenodd" d="M19 2.37891C18.7026 2.37891 18.4174 2.49705 18.2071 2.70733L8.90296 12.0115L8.37437 14.1259L10.4887 13.5973L19.7929 4.29312C20.0032 4.08283 20.1213 3.79762 20.1213 3.50023C20.1213 3.20283 20.0032 2.91762 19.7929 2.70733C19.5826 2.49705 19.2974 2.37891 19 2.37891ZM16.7929 1.29312C17.3783 0.707759 18.1722 0.378906 19 0.378906C19.8278 0.378906 20.6217 0.707759 21.2071 1.29312C21.7925 1.87848 22.1213 2.6724 22.1213 3.50023C22.1213 4.32805 21.7925 5.12197 21.2071 5.70733L11.7071 15.2073C11.5789 15.3355 11.4184 15.4264 11.2425 15.4704L7.24253 16.4704C6.90176 16.5556 6.54127 16.4557 6.29289 16.2073C6.04451 15.959 5.94466 15.5985 6.02986 15.2577L7.02986 11.2577C7.07381 11.0819 7.16473 10.9213 7.29289 10.7931L16.7929 1.29312Z" fill="#A49FC2"/>
</svg>
