<svg width="40" height="40" viewBox="0 0 40 40" fill="none" xmlns="http://www.w3.org/2000/svg">
<path d="M32.3334 24.9998C32.1115 25.5025 32.0453 26.0602 32.1433 26.6008C32.2414 27.1415 32.4991 27.6404 32.8834 28.0332L32.9834 28.1332C33.2933 28.4427 33.5391 28.8104 33.7069 29.215C33.8746 29.6197 33.961 30.0535 33.961 30.4915C33.961 30.9296 33.8746 31.3633 33.7069 31.768C33.5391 32.1726 33.2933 32.5403 32.9834 32.8498C32.6738 33.1598 32.3062 33.4056 31.9015 33.5734C31.4968 33.7411 31.0631 33.8275 30.625 33.8275C30.187 33.8275 29.7532 33.7411 29.3486 33.5734C28.9439 33.4056 28.5763 33.1598 28.2667 32.8498L28.1667 32.7498C27.7739 32.3656 27.275 32.1079 26.7343 32.0098C26.1937 31.9118 25.636 31.978 25.1334 32.1998C24.6404 32.4111 24.22 32.7619 23.9239 33.2091C23.6277 33.6562 23.4688 34.1802 23.4667 34.7165V34.9998C23.4667 35.8839 23.1155 36.7317 22.4904 37.3569C21.8653 37.982 21.0174 38.3332 20.1334 38.3332C19.2493 38.3332 18.4015 37.982 17.7763 37.3569C17.1512 36.7317 16.8 35.8839 16.8 34.9998V34.8498C16.7871 34.2982 16.6086 33.7632 16.2875 33.3143C15.9665 32.8655 15.5179 32.5236 15 32.3332C14.4973 32.1113 13.9397 32.0451 13.399 32.1432C12.8584 32.2412 12.3595 32.4989 11.9667 32.8832L11.8667 32.9832C11.5571 33.2931 11.1895 33.539 10.7848 33.7067C10.3802 33.8745 9.94641 33.9608 9.50835 33.9608C9.0703 33.9608 8.63655 33.8745 8.23189 33.7067C7.82723 33.539 7.4596 33.2931 7.15002 32.9832C6.8401 32.6736 6.59424 32.306 6.42649 31.9013C6.25874 31.4966 6.1724 31.0629 6.1724 30.6248C6.1724 30.1868 6.25874 29.753 6.42649 29.3484C6.59424 28.9437 6.8401 28.5761 7.15002 28.2665L7.25002 28.1665C7.63425 27.7737 7.892 27.2748 7.99003 26.7342C8.08806 26.1935 8.02188 25.6359 7.80002 25.1332C7.58875 24.6402 7.23795 24.2198 6.7908 23.9237C6.34365 23.6276 5.81966 23.4686 5.28335 23.4665H5.00002C4.11597 23.4665 3.26812 23.1153 2.643 22.4902C2.01788 21.8651 1.66669 21.0172 1.66669 20.1332C1.66669 19.2491 2.01788 18.4013 2.643 17.7761C3.26812 17.151 4.11597 16.7998 5.00002 16.7998H5.15002C5.70168 16.7869 6.2367 16.6084 6.68552 16.2874C7.13434 15.9663 7.47621 15.5177 7.66669 14.9998C7.88855 14.4971 7.95473 13.9395 7.85669 13.3989C7.75866 12.8582 7.50092 12.3593 7.11669 11.9665L7.01669 11.8665C6.70677 11.5569 6.4609 11.1893 6.29315 10.7846C6.12541 10.38 6.03906 9.94622 6.03906 9.50817C6.03906 9.07012 6.12541 8.63636 6.29315 8.2317C6.4609 7.82704 6.70677 7.45941 7.01669 7.14984C7.32626 6.83992 7.69389 6.59405 8.09855 6.4263C8.50321 6.25856 8.93697 6.17221 9.37502 6.17221C9.81307 6.17221 10.2468 6.25856 10.6515 6.4263C11.0561 6.59405 11.4238 6.83992 11.7334 7.14984L11.8334 7.24984C12.2262 7.63407 12.725 7.89181 13.2657 7.98984C13.8064 8.08788 14.364 8.0217 14.8667 7.79984H15C15.493 7.58857 15.9134 7.23776 16.2095 6.79061C16.5056 6.34346 16.6645 5.81948 16.6667 5.28317V4.99984C16.6667 4.11578 17.0179 3.26794 17.643 2.64281C18.2681 2.01769 19.116 1.6665 20 1.6665C20.8841 1.6665 21.7319 2.01769 22.357 2.64281C22.9822 3.26794 23.3334 4.11578 23.3334 4.99984V5.14984C23.3355 5.68615 23.4944 6.21013 23.7905 6.65728C24.0867 7.10443 24.5071 7.45523 25 7.6665C25.5027 7.88836 26.0603 7.95454 26.601 7.85651C27.1417 7.75848 27.6406 7.50073 28.0334 7.1165L28.1334 7.0165C28.4429 6.70658 28.8106 6.46072 29.2152 6.29297C29.6199 6.12522 30.0536 6.03888 30.4917 6.03888C30.9297 6.03888 31.3635 6.12522 31.7682 6.29297C32.1728 6.46072 32.5404 6.70658 32.85 7.0165C33.1599 7.32608 33.4058 7.69371 33.5736 8.09837C33.7413 8.50303 33.8276 8.93679 33.8276 9.37484C33.8276 9.81289 33.7413 10.2466 33.5736 10.6513C33.4058 11.056 33.1599 11.4236 32.85 11.7332L32.75 11.8332C32.3658 12.226 32.108 12.7249 32.01 13.2655C31.912 13.8062 31.9782 14.3638 32.2 14.8665V14.9998C32.4113 15.4928 32.7621 15.9132 33.2092 16.2093C33.6564 16.5055 34.1804 16.6644 34.7167 16.6665H35C35.8841 16.6665 36.7319 17.0177 37.357 17.6428C37.9822 18.2679 38.3334 19.1158 38.3334 19.9998C38.3334 20.8839 37.9822 21.7317 37.357 22.3569C36.7319 22.982 35.8841 23.3332 35 23.3332H34.85C34.3137 23.3353 33.7897 23.4942 33.3426 23.7903C32.8954 24.0865 32.5446 24.5069 32.3334 24.9998Z" fill="#A49FC2"/>
<path d="M20 25C22.7614 25 25 22.7614 25 20C25 17.2386 22.7614 15 20 15C17.2386 15 15 17.2386 15 20C15 22.7614 17.2386 25 20 25Z" fill="white"/>
</svg>
