<svg width="26" height="29" viewBox="0 0 26 29" fill="none" xmlns="http://www.w3.org/2000/svg">
<path fill-rule="evenodd" clip-rule="evenodd" d="M2.00144 19.8764C3.28294 18.5949 5.02102 17.875 6.83333 17.875H18.5C20.3123 17.875 22.0504 18.5949 23.3319 19.8764C24.6134 21.1579 25.3333 22.896 25.3333 24.7083V27.625C25.3333 28.1773 24.8856 28.625 24.3333 28.625C23.781 28.625 23.3333 28.1773 23.3333 27.625V24.7083C23.3333 23.4265 22.8241 22.1971 21.9177 21.2907C21.0113 20.3842 19.7819 19.875 18.5 19.875H6.83333C5.55145 19.875 4.32208 20.3842 3.41565 21.2907C2.50922 22.1971 2 23.4265 2 24.7083V27.625C2 28.1773 1.55228 28.625 1 28.625C0.447715 28.625 0 28.1773 0 27.625V24.7083C0 22.896 0.719938 21.1579 2.00144 19.8764Z" fill="#492F93"/>
<path fill-rule="evenodd" clip-rule="evenodd" d="M12.6667 2.375C9.99733 2.375 7.83337 4.53896 7.83337 7.20833C7.83337 9.87771 9.99733 12.0417 12.6667 12.0417C15.3361 12.0417 17.5 9.87771 17.5 7.20833C17.5 4.53896 15.3361 2.375 12.6667 2.375ZM5.83337 7.20833C5.83337 3.43439 8.89276 0.375 12.6667 0.375C16.4407 0.375 19.5 3.43439 19.5 7.20833C19.5 10.9823 16.4407 14.0417 12.6667 14.0417C8.89276 14.0417 5.83337 10.9823 5.83337 7.20833Z" fill="#492F93"/>
</svg>
