<svg width="46" height="46" viewBox="0 0 46 46" fill="none" xmlns="http://www.w3.org/2000/svg">
<path fill-rule="evenodd" clip-rule="evenodd" d="M23.0001 4.16667C12.5987 4.16667 4.16675 12.5986 4.16675 23C4.16675 33.4014 12.5987 41.8333 23.0001 41.8333C33.4014 41.8333 41.8334 33.4014 41.8334 23C41.8334 12.5986 33.4014 4.16667 23.0001 4.16667ZM0.166748 23C0.166748 10.3895 10.3896 0.166666 23.0001 0.166666C35.6106 0.166666 45.8334 10.3895 45.8334 23C45.8334 35.6105 35.6106 45.8333 23.0001 45.8333C10.3896 45.8333 0.166748 35.6105 0.166748 23Z" fill="#F241A3"/>
<path fill-rule="evenodd" clip-rule="evenodd" d="M24.4143 13.2525C25.1953 14.0335 25.1953 15.2998 24.4143 16.0809L17.4952 23L24.4143 29.9191C25.1953 30.7002 25.1953 31.9665 24.4143 32.7475C23.6332 33.5286 22.3669 33.5286 21.5859 32.7475L13.2525 24.4142C12.4715 23.6332 12.4715 22.3668 13.2525 21.5858L21.5859 13.2525C22.3669 12.4714 23.6332 12.4714 24.4143 13.2525Z" fill="#F241A3"/>
<path fill-rule="evenodd" clip-rule="evenodd" d="M12.6667 23C12.6667 21.8954 13.5622 21 14.6667 21H31.3334C32.438 21 33.3334 21.8954 33.3334 23C33.3334 24.1046 32.438 25 31.3334 25H14.6667C13.5622 25 12.6667 24.1046 12.6667 23Z" fill="#F241A3"/>
</svg>
