<svg width="23" height="20" viewBox="0 0 23 20" fill="none" xmlns="http://www.w3.org/2000/svg">
<path fill-rule="evenodd" clip-rule="evenodd" d="M21 0.5C21.8284 0.5 22.5 1.17157 22.5 2V8C22.5 8.82843 21.8284 9.5 21 9.5H15C14.1716 9.5 13.5 8.82843 13.5 8C13.5 7.17157 14.1716 6.5 15 6.5H19.5V2C19.5 1.17157 20.1716 0.5 21 0.5Z" fill="#A49FC2"/>
<path fill-rule="evenodd" clip-rule="evenodd" d="M11.3808 3.56579C9.88243 3.36341 8.35878 3.63123 7.0422 4.32248C5.7265 5.01326 4.69674 6.08462 4.09403 7.3626C3.492 8.63915 3.34372 10.0617 3.66685 11.4201C3.99021 12.7795 4.77199 14.0156 5.91059 14.9348C7.0503 15.8549 8.48305 16.4045 9.99446 16.4887C11.506 16.5729 12.9996 16.1862 14.2489 15.3959C15.4972 14.6063 16.4283 13.4609 16.9172 12.1431C17.2054 11.3664 18.0686 10.9704 18.8453 11.2586C19.622 11.5468 20.018 12.41 19.7299 13.1867C19.0052 15.1399 17.639 16.8013 15.8526 17.9313C14.0673 19.0606 11.9532 19.6024 9.82761 19.484C7.70195 19.3656 5.66531 18.5924 4.02611 17.2691C2.38581 15.9449 1.22973 14.1383 0.748282 12.1143C0.266603 10.0893 0.490191 7.97105 1.38064 6.08294C2.27042 4.19627 3.77291 2.6506 5.64764 1.66631C7.52149 0.682488 9.6736 0.307972 11.7824 0.592783C13.8888 0.877281 15.8522 1.80637 17.3736 3.25364L21.024 6.66389C21.6294 7.22943 21.6616 8.17863 21.0961 8.78399C20.5306 9.38935 19.5814 9.42163 18.976 8.85609L15.3205 5.44104L15.3098 5.43092C14.2565 4.42743 12.879 3.76813 11.3808 3.56579Z" fill="#A49FC2"/>
</svg>
